<svg viewBox="0 0 220 57" xmlns="http://www.w3.org/2000/svg" fill-rule="evenodd" clip-rule="evenodd" stroke-linejoin="round" stroke-miterlimit="1.414">
  <g fill-rule="nonzero">
    <path d="M142.051 56.186c-3.064 0-6.187-.822-8.795-2.315l-.994-.57.339-1.477c1.303-5.706 1.697-7.427 1.998-8.081.113-.232.466-.764 1.327-.764.773 0 1.271.777 1.293.81.8 1.439 2.866 3.565 5.305 3.565 2.13 0 3.471-.64 4.908-2.354l-9.814-29.171-.018-.125c-.087-.497-.202-.696-.274-.714a42.617 42.617 0 0 1-1.696-.364l-.042-.003a3.573 3.573 0 0 1-2.411-1.294c-.661-.772-.865-1.751-.556-2.683.201-.709.964-2.378 3.664-2.378l13.574.064 5.938 22.28 7.508-15.145c.219-.443.245-.682.267-.948l-.23-.141c-1.249-.709-1.937-1.85-1.833-3.049.022-.223.069-.442.138-.655.236-.891 1.036-2.406 3.716-2.406h13.417l-20.848 37.831c-2.563 4.261-6.068 10.087-15.881 10.087m48.246.019c-7.273 0-12.305-1.976-15.837-6.22-3.25-3.892-4.422-9.94-3.133-16.178l.167-.82c.525-2.565 1.24-6.066 2.114-8.676 1.812-5.351 4.735-9.865 8.023-12.387 2.319-1.78 6.167-4.202 12.78-4.69a44.45 44.45 0 0 1 3.265-.13c.416 0 .84.006 1.272.023 3.397.122 6.991.803 10.391 1.97l.123.035c.403.151 1.406.568 1.977 1.339.635.852.831 1.886.6 3.161l-1.797 8.538c-.091.473-.198.943-.321 1.409l-.003.131c-.354 1.871-1.864 3.228-3.592 3.228-.979 0-1.612-.414-2.101-.82l-.098-.084c-.49-.542-.979-1.389-.866-2.742.111-2.985-.556-5.315-1.239-5.985-.941-.919-2.056-1.744-5.288-1.744-2.572 0-4.798 1.155-7.007 3.634-1.063 1.526-1.965 3.558-2.461 5.557-.037.154-.906 3.595-.906 3.595-.836 3.303-2.094 8.301-2.16 8.585-.503 2.285-.419 5.796 1.48 8.162 1.264 1.571 3.151 2.368 5.608 2.368 6.472 0 11.415-4.255 11.463-4.298l.983-.853c.013-.013.255-.25.695-.25.169 0 .342.035.519.104.814.317.563 1.437.552 1.485l-1.851 8.68-.397.34c-.163.144-4.151 3.533-12.955 3.533m-174.756 0c-9.741 0-13.923-4.411-15.269-6.308-.464-.529-.417-.739.793-6.092.034-.163.866-4.042 1.091-4.815.213-.731.567-1.48 1.572-1.48 1.009 0 1.263.864 1.431 1.435.024.081 2.516 8.133 10.701 8.133 6.743 0 10.796-3.463 12.758-10.898.056-.213.38-1.491.804-3.172H14.061l2.134-8.82h15.447l.301-1.205c.842-3.496.907-8.297-1.438-11.28-1.399-1.773-3.549-2.671-6.39-2.671-1.071 0-3.77.1-5.694 1.034-2.433 1.318-4.183 3.448-5.84 7.118-.566 1.33-1.685 2.921-3.796 2.921-.934 0-1.735-.371-2.257-1.046-.584-.753-.75-1.768-.466-2.858l2.54-10.679a4.023 4.023 0 0 1 1.575-2.251C11.668 2.207 17.662.219 25.391.219c6.682 0 11.499 2.176 15.618 7.057 3.701 4.384 5.032 11.268 3.561 18.415-.597 2.893-1.664 7.511-2.596 10.814-3.63 12.887-12.77 19.7-26.433 19.7m27.464-1.171l5.597-24.207c1.15-5.152 2.297-10.305 3.442-15.458.012-.064.025-.131.035-.196-2.115-.265-2.225-.285-2.289-.297-1.505-.272-2.207-1.051-2.532-1.656-.393-.743-.466-1.464-.238-2.34.402-1.538 1.939-2.612 3.737-2.612h23.084c4.861 0 8.437 1.374 10.63 4.086 2.071 2.561 2.697 6.113 1.807 10.274-2.063 9.675-11.357 13.29-15.258 14.395-3.893 1.101-8.117 1.47-11.031 1.583l-1.778 7.901c-.121.531-.219.957-.316 1.296l-.012.101c-.068.322-.018.49.005.523 1.604.45 4.413 1.278 3.746 4.058-.146.76-.807 2.549-3.735 2.549H43.005zm18.968-25.265c5.709-.411 9.881-3.423 10.922-7.908.363-1.562.242-2.739-.36-3.5-.841-1.055-2.572-1.277-3.876-1.277H64.82l-2.847 12.685z" fill="#002f87"></path>
    <path d="M108.153 54.987l5.669-23.988c-2.843 3.907-14.219 19.528-14.963 20.385-1.127 1.293-2.333 1.948-2.384 1.975-1.773 1.108-3.57 1.628-5.646 1.628h-7.805l5.662-23.943 3.375-15.22c.042-.187.084-.373.132-.548l.013-.091c.022-.114.032-.208.036-.284l-2.163-.325c-1.287-.116-2.039-.742-2.441-1.247-.551-.74-.757-1.596-.601-2.48l.047-.228c.306-.964 1.148-2.398 3.684-2.398h16.483l-5.781 24.009c0 .009-.02.104-.056.274 2.754-3.686 14.317-19.156 15.197-20.293 1.018-1.318 2.511-2.249 2.574-2.289 1.715-1.097 3.754-1.686 5.895-1.701h7.294L126.6 32.219c-.082.351-3.399 15.299-3.512 15.829-.022.114-.03.208-.034.282.806.218 1.709.412 1.772.424 2.359.421 3.156 2.121 2.897 3.618l-.102.389c-.286.842-1.132 2.226-3.633 2.226h-15.835zm33.898.984c-3.031 0-6.114-.813-8.687-2.287l-.855-.491.22-.962c1.361-5.956 1.768-7.751 2.066-8.397.134-.275.467-.64 1.131-.64.663 0 1.111.71 1.111.71.817 1.471 2.949 3.665 5.487 3.665 2.217 0 3.628-.672 5.15-2.523l-9.845-29.268-.016-.106c-.143-.817-.353-.871-.435-.892-.592-.113-1.18-.24-1.766-.381v.01a3.354 3.354 0 0 1-2.269-1.218c-.61-.712-.801-1.621-.518-2.477.225-.796 1-2.231 3.46-2.231l13.408.063 6.043 22.673 7.762-15.657c.245-.496.267-.764.292-1.054a.895.895 0 0 0 .009-.103l-.344-.211c-1.182-.67-1.829-1.719-1.731-2.847.019-.194.063-.41.128-.605.23-.871.997-2.259 3.511-2.259h13.052l-20.672 37.512c-2.54 4.223-6.002 9.976-15.692 9.976m48.246.018c-7.205 0-12.183-1.95-15.671-6.141-3.207-3.841-4.363-9.825-3.087-15.997l.167-.821c.522-2.554 1.236-6.05 2.107-8.651 1.798-5.311 4.694-9.787 7.949-12.285 2.295-1.76 6.107-4.161 12.665-4.646a44.593 44.593 0 0 1 3.249-.129c.413 0 .835.006 1.263.023 3.379.122 6.948.798 10.329 1.958l.081.027.036.007.111.042c.281.104 1.24.507 1.769 1.223.6.804.782 1.782.562 2.994l-1.795 8.533c-.132.632-.238 1.141-.362 1.537l.036.008c-.335 1.769-1.758 3.052-3.38 3.052-.914 0-1.503-.388-1.965-.771l-.071-.059-.065-.074c-.4-.441-.856-1.235-.749-2.508.114-3.073-.569-5.438-1.303-6.158-.975-.95-2.123-1.805-5.439-1.805-2.635 0-4.915 1.177-7.168 3.706-1.095 1.57-2.007 3.623-2.509 5.648-.051.209-.431 1.71-.906 3.593-.725 2.862-1.446 5.725-2.161 8.59-.514 2.33-.425 5.921 1.521 8.345 1.307 1.623 3.252 2.449 5.777 2.449 6.52 0 11.557-4.306 11.607-4.354l.98-.849s.35-.36.995-.109c.649.253.419 1.235.419 1.235l-1.836 8.613-.341.294c-.164.143-4.151 3.48-12.815 3.48m-174.756 0c-9.04 0-13.423-3.864-15.094-6.217-.402-.46-.358-.668.828-5.92 0 0 .862-4.027 1.088-4.802.225-.771.54-1.325 1.365-1.325.821 0 1.042.662 1.224 1.281.083.278 2.603 8.287 10.908 8.287 7.024 0 11.03-3.719 12.966-11.058.06-.224.415-1.628.873-3.442H14.335l2.029-8.389H31.81c.195-.778.322-1.291.342-1.366.855-3.551.915-8.425-1.477-11.468-1.443-1.828-3.65-2.753-6.56-2.753-1.525 0-3.99.183-5.788 1.055-2.469 1.337-4.264 3.508-5.942 7.223-.513 1.207-1.569 2.795-3.6 2.795-.875 0-1.606-.341-2.086-.963-.542-.697-.695-1.647-.428-2.671L8.812 5.572a3.792 3.792 0 0 1 1.49-2.126C11.624 2.503 17.46.434 25.391.434c6.614 0 11.381 2.155 15.453 6.981 3.661 4.336 4.973 11.15 3.515 18.233-.595 2.881-1.66 7.492-2.593 10.8-2.055 7.297-7.734 19.541-26.225 19.541" fill="#002f87"></path>
    <path d="M165.584 9.817c-.522 0-2.11-.093-2.455 1.303a1.49 1.49 0 0 0-.075.343c-.072.824.7 1.369 1.108 1.599l.278.174c.297.176.764.401.681 1.388-.036.395-.086.841-.455 1.579l-9.31 18.468-6.662-24.799-12.409-.055c-.451 0-1.82 0-2.193 1.318-.188.557.094.992.275 1.204.323.393.778.68 1.396.748-.113-.018 1.941.402 1.941.402.769.193 1.226.806 1.423 1.959L149.172 45.3c-1.892 2.523-3.744 3.601-6.648 3.601-3.25 0-5.734-2.693-6.651-4.352-.025.013-1.845 7.978-1.845 7.978 2.3 1.319 5.157 2.109 8.023 2.109 8.743 0 11.855-4.853 14.537-9.305l19.526-35.514h-10.53zm44.611 1.578c-.34-.46-1.171-.773-1.171-.773-.153-.031-4.582-1.748-10.133-1.948a38.992 38.992 0 0 0-4.364.103c-5.891.437-9.513 2.503-11.954 4.376-3.109 2.383-5.834 6.745-7.495 11.65-.948 2.823-1.733 6.884-2.234 9.315-1.211 5.855-.061 11.444 2.806 14.88 3.409 4.092 8.202 5.656 14.647 5.656 8.27 0 11.946-3.156 11.946-3.156l1.53-7.167s-5.35 4.68-12.485 4.68c-7.983 0-9.705-7.391-8.601-12.419.081-.348 2.929-11.607 3.075-12.213.485-1.948 1.401-4.233 2.756-6.151 2.342-2.647 4.952-4.213 8.216-4.213 3.602 0 5.097.939 6.37 2.186 1.216 1.19 1.813 4.206 1.702 7.222-.054.636.084 1.145.41 1.502.399.332.683.469 1.111.464.986 0 1.856-.831 2.072-1.966l2.115-10.067c.151-.832.066-1.447-.319-1.961M39.828 8.273c-3.503-4.149-7.669-6.506-14.437-6.506-7.695 0-13.284 2.029-14.317 2.765-.534.382-.842.879-.963 1.35 0 0-2.556 10.725-2.551 10.709-.292 1.136.202 1.965 1.191 1.965.422.008.767-.131 1.318-.463.483-.355.852-.865 1.086-1.502 1.914-4.262 3.998-6.516 6.592-7.917 2.042-.992 4.737-1.189 6.368-1.189 9.833 0 10.856 9.545 9.331 15.867-.025.105-.261 1.049-.598 2.384H17.414l-1.387 5.719h15.38c-.645 2.573-1.216 4.833-1.292 5.121-1.487 5.631-4.7 12.049-14.255 12.049-9.478 0-12.199-9.279-12.199-9.279s-2.188 9.678-2.166 9.601c1.731 2.477 5.979 5.71 14.046 5.71 16.916 0 22.745-10.764 24.942-18.572.928-3.292 1.992-7.913 2.57-10.707 1.389-6.731.091-13.173-3.225-17.105m34.013 1.544H50.757c-1.117 0-2.017.608-2.237 1.455-.125.475-.11.814.107 1.217.241.457.755.741 1.472.868.083.019 2.691.344 2.691.344.67.169.853.756.853 1.297 0 .245-.04.473-.08.667.01-.019-3.452 15.511-3.452 15.511l-5.16 22.31h12.948c1.32 0 2.065-.44 2.222-1.33.344-1.368-1.038-1.786-2.788-2.301-.663-.219-1.231-.996-.967-2.264 0 .059-.1.526 2.375-10.498 2.31-.043 7.365-.288 11.856-1.559 5.599-1.588 12.52-5.508 14.168-13.228 1.469-6.894-1.509-12.489-10.924-12.489m.564 12.394c-1.281 5.515-6.49 8.818-12.825 9.129h-1.547c.9-4.007 2.02-8.993 3.414-15.214.1-.424.307-.59.772-.59h4.44c4.397 0 6.785 2.197 5.746 6.675m49.569 27.911c-.05-.005-1.666-.35-1.666-.35a.938.938 0 0 1-.545-.396c-.263-.377-.322-.961-.192-1.633 1.173-5.31 2.351-10.618 3.535-15.925l5.303-22.049h-5.316c-2.869.025-5.685 1.252-7.455 3.71l-19.19 25.574c.837-3.96 1.524-7.199 1.532-7.235l5.303-22.049H90.768c-.437 0-1.79 0-2.179 1.213l-.016.066-.012.07c-.079.462.028.898.286 1.245.315.396.784.623 1.418.677-.059-.007 2.772.413 2.772.413.5.102.917.835.689 2.025 0-.02-3.534 15.922-3.534 15.922l-5.208 22.041h5.631l-.005-.007c2.9 0 5.755-1.233 7.543-3.715v.008l18.84-25.676-1.677 7.349-5.208 22.041h13.88c.437 0 1.767 0 2.17-1.189l.04-.144c.136-.789-.258-1.673-2.224-1.986" fill="#fff"></path>
    <path d="M154.547 36.659l-6.857-25.458-.863-.005 7.124 26.545.596-1.082zm-17.582-24.683c.504.104 1.033.213 1.067.224.455.113.85.316 1.184.598-.423-.788-1.059-1.299-1.911-1.513-.023-.007-.304-.064-.647-.134l-.373-.002c-.712 0-.845.154-.907.332l.015.006a.709.709 0 0 0 .507.274l1.065.215zm35.604-.827l-17.866 32.61c-2.427 4.03-5.191 8.634-13.377 8.634-1.928 0-3.87-.411-5.642-1.129-.044.188-.086.379-.13.561a15.137 15.137 0 0 0 6.497 1.478c8.186 0 10.95-4.601 13.377-8.633l18.389-33.521h-1.248zm23.439.62c-3.424 0-6.437 1.526-9.215 4.661l-.048.053-.041.063c-1.775 2.515-2.614 5.216-2.956 6.6-.304 1.194-.605 2.388-.905 3.582-.734 2.886-1.461 5.774-2.181 8.663-.673 3.055-.486 7.441 2.05 10.595.085.105.183.198.27.301-2.101-3.095-2.222-7.121-1.595-9.981.045-.209.769-3.081 2.181-8.664.472-1.878.85-3.37.902-3.583.343-1.384 1.184-4.084 2.957-6.6l.043-.062.049-.053c2.779-3.136 5.788-4.662 9.216-4.662 3.832 0 5.681 1.002 7.239 2.512a4.365 4.365 0 0 0-.665-.86c-1.575-1.54-3.417-2.565-7.301-2.565m4.315 38.042c-1.029.679-4.482 2.598-10.752 2.598-6.228 0-10.35-1.512-13.315-4.849.139.193.264.402.417.587 2.984 3.578 7.187 5.177 13.624 5.177 6.27 0 9.723-1.924 10.748-2.603l.722-3.388c-.34.202-.686.393-1.039.572l-.405 1.906zm8.816-37.608c-.08-.083-.359-.244-.574-.329a.326.326 0 0 0-.044-.015 2.867 2.867 0 0 1-.042.346c-.021.114-1.289 6.126-1.851 8.798l-.024-.004-.238 1.261a1.342 1.342 0 0 1-.226.516c0 .256.002.511-.008.756-.017.227.005.375.041.452.078.054.118.07.148.07h.006c.292 0 .658-.329.76-.884l.242-1.258.024.005 1.851-8.799c.123-.662-.013-.841-.065-.915M17.721 30.124h14.442l.23-.913H17.942l-.221.913zM9.9 16.133l.035-.091c1.919-4.261 4.134-6.896 7.229-8.569 2.255-1.094 5.145-1.322 6.951-1.322 3.551 0 6.331 1.141 8.289 3.363-.12-.171-.232-.344-.364-.505-1.969-2.502-4.881-3.773-8.65-3.773-1.806 0-4.695.229-6.951 1.325-3.03 1.636-5.212 4.207-7.101 8.308-.134.556-.248 1.043-.332 1.394l.013.013-.17.648c-.027.097-.04.198-.039.299.056-.005.169-.035.512-.236.25-.198.446-.487.578-.854m28.908-6.999c-.047-.06-.1-.114-.147-.169 2.647 3.714 3.556 9.439 2.364 15.228-.586 2.842-1.633 7.376-2.547 10.619-1.852 6.573-6.926 17.597-23.662 17.597-6.319 0-10.046-2.053-11.865-3.858l-.021.09c1.546 1.929 5.297 4.683 12.611 4.683 16.736 0 21.808-11.026 23.662-17.599.914-3.243 1.958-7.777 2.547-10.617 1.276-6.192.147-12.314-2.942-15.974m23.342 6.688c.242-1.027.994-1.618 2.069-1.618h4.44c2.519 0 4.489.678 5.755 1.955a5.637 5.637 0 0 0-.348-.504c-1.232-1.546-3.348-2.362-6.129-2.362h-4.442c-1.074 0-1.828.59-2.071 1.616L57.641 31.76h.93l3.579-15.938zm-11.832-3.778c.233.035 2.636.336 2.636.336l.081.01.075.017c.319.083.62.228.883.427a2.36 2.36 0 0 0-1.608-1.338l-.075-.018-.077-.011s-1.146-.144-1.931-.245c-.285.092-.459.256-.493.388-.038.145-.033.193-.017.243 0 0 .117.117.526.191m31.914 2.12c-.118-.143-.254-.273-.385-.408 1.511 2.29 1.345 5.226.889 7.359C81 29.257 72.91 32.376 69.507 33.341c-4.26 1.206-9.042 1.461-11.516 1.507l-1.044.018-.232 1.021c-1.747 7.791-2.296 10.228-2.353 10.437l-.027.082c-.317 1.538.211 2.679.995 3.323-.325-.63-.471-1.438-.27-2.41l.025-.084c.055-.204.61-2.646 2.359-10.435l.228-1.018 1.044-.024c2.472-.043 7.257-.301 11.516-1.507 3.402-.962 11.493-4.081 13.229-12.223.486-2.289.673-5.512-1.229-7.864M57.174 51.241H46.84l-.212.915h11.271c.708 0 .892-.162.908-.233l.02-.098c-.25-.188-.939-.411-1.532-.592-.043.003-.074.008-.121.008m33.197-39.532s2.863.426 2.927.437c.289.059.561.182.796.36-.332-.7-.894-1.147-1.518-1.271-.025-.005-.405-.06-.884-.133h-.924c-.692 0-.845.145-.892.254-.015.085 0 .156.014.176.028.038.116.151.481.177m30.131 38.102c-.514-1.119-.177-2.06-.177-2.06.065-.864.507-2.857 1.701-8.225 1.764-7.954 1.785-8.021 1.794-8.054l-.026.193c.105-.544.769-3.303 4.925-20.563h-.945c-3.954 16.436-4.602 19.119-4.706 19.652l.026-.195c-.009.033-.028.102-1.792 8.054-1.192 5.368-1.633 7.361-1.7 8.224 0 0-.422 1.138.344 2.393.145.237.339.427.556.581m-23.72-8.832c0-.043-.002-.09.003-.112 1.403-6.663 1.894-9.34 1.911-9.404l-.027.195c.11-.558.787-3.366 4.925-20.556h-.944c-3.942 16.367-4.597 19.094-4.706 19.645l.027-.196c-.016.063-.507 2.741-1.91 9.403-.03.125.024.804.302.973.13.081.278.086.419.052M124.3 51.441c-.125-.02-.622-.153-1.376-.246h-10.916l-.215.913h12.195c.776 0 .87-.18.903-.271.008-.11-.036-.295-.591-.396m-6.54-29.21c-.042-.317-.189-.672-.602-.876-.88-.436-1.568.51-1.568.51L96.352 48.024l-.009.005c-1.445 2.008-3.798 3.159-6.456 3.159l-3.003.004-.217.916 3.943-.009c2.661 0 5.014-1.152 6.459-3.16l.008-.002 19.238-26.161s.627-.842 1.445-.545" fill="#8e9090"></path>
    <path d="M215.977 1.183a3.258 3.258 0 0 1 3.236 3.242v.019a3.261 3.261 0 0 1-3.236 3.249 3.26 3.26 0 0 1-3.244-3.245v-.004c0-1.804 1.467-3.261 3.244-3.261m-.01-.779c-2.213.003-4.032 1.827-4.029 4.04v.007c0 2.204 1.814 4.018 4.018 4.018h.019c2.208 0 4.025-1.817 4.025-4.025 0-2.225-1.8-4.04-4.033-4.04m-.948 2.591h.786c.581 0 .883.195.883.574 0 .507-.429.593-.969.593h-.7V2.995zm0 3.596v-1.76h.225c.476 0 .723.162 1.198 1.07l.355.69h1.08l-.507-.852c-.323-.552-.476-.855-.907-1.016.756-.107 1.153-.614 1.153-1.197 0-.724-.483-1.21-1.441-1.21h-2.032v4.275h.876z" fill="#fff"></path>
  </g>

    
    
</svg>