<svg viewBox="0 0 1925 915" xmlns="http://www.w3.org/2000/svg" fill-rule="evenodd" clip-rule="evenodd" stroke-linecap="round" stroke-linejoin="round" stroke-miterlimit="1.5">
  <path d="M0 726.77s103.41-49.39 169.66-184.93c11.12-22.75 41.92-67.06 82.01-85.26 27.96-12.69 59.05-17.86 85.97-14.71 29.95 3.5 59.82 17.25 73.81 29.98 60.65 55.21 44.85 97.98 50.72 148.74 3.14 27.23 9.76 55.03 17.8 73.7 16.57 38.5 50.43 66.13 89.95 68 55.17 2.61 101.93-17.8 168.34-50.34 50.8-24.9 164.14-97.4 224.24-117.18 34.62-11.4 77.87-19.13 113.58-16.19 80.66 6.65 135.04 83.43 153.58 99.83 27.96 24.74 68.16 44.13 104.23 48.55 36.07 4.43 77.73-4.72 112.21-19.17a456.46 456.46 0 0085.5-47.17c33.09-23.27 63.04-50.71 88.45-76.14a762.71 762.71 0 0160.92-54.6c175.7-141 244.03-36.81 244.03-36.81v-492L0 .93v725.85zm592.3-192.02a51.69 51.69 0 0151.66 51.66 51.69 51.69 0 01-51.67 51.67 51.69 51.69 0 01-51.66-51.67 51.69 51.69 0 0151.66-51.66zm113.83-113.6a20.14 20.14 0 010 40.25 20.14 20.14 0 010-40.26zM536.83 231.9c57.39 0 103.98 46.59 103.98 103.98s-46.6 103.98-103.98 103.98c-57.4 0-103.99-46.6-103.99-103.98 0-57.4 46.6-103.98 103.99-103.98zM135.49 371.58a34.16 34.16 0 0134.14 34.14 34.16 34.16 0 01-34.14 34.14 34.16 34.16 0 01-34.14-34.14 34.16 34.16 0 0134.14-34.14zM317.16 225.9a47.42 47.42 0 0147.4 47.4 47.42 47.42 0 01-47.4 47.4 47.42 47.42 0 01-47.4-47.4 47.42 47.42 0 0147.4-47.4zM492.09 49.62a25.8 25.8 0 010 51.58 25.8 25.8 0 010-51.58z" fill="#f2f5ff"/>
  <g fill="#d91b1a">
    <circle cx="592.29" cy="586.41" r="7.37"/>
    <circle cx="366.65" cy="685.91" r="7.37"/>
    <circle cx="714.76" cy="100.94" r="7.37"/>
    <circle cx="706.13" cy="441.99" r="7.37"/>
    <circle cx="196.29" cy="705.44" r="7.37"/>
    <circle cx="295.79" cy="565.91" r="7.37"/>
    <circle cx="135.49" cy="405.72" r="7.37"/>
    <circle cx="536.79" cy="335.91" r="7.37"/>
    <circle cx="1036.03" cy="723.91" r="7.37"/>
    <circle cx="806.79" cy="885.91" r="7.37"/>
    <circle cx="1259.2" cy="866.51" r="7.37"/>
    <circle cx="317.16" cy="273.3" r="7.37"/>
    <circle cx="492.09" cy="75.41" r="7.37"/>
    <circle cx="1817.79" cy="542.91" r="7.37"/>
  </g>
  <g stroke="#e8ecff" stroke-width="1.9" fill="none">
    <circle cx="592.29" cy="586.41" r="66.41"/>
    <circle cx="492.09" cy="75.41" r="66.5"/>
    <circle cx="714.76" cy="100.94" r="42.03"/>
  </g>
  <g fill="none" stroke="#e8ecff" stroke-width="1.9">
    <path d="M634.37 534.34l61.12-75.82M706.13 421.14l8.63-278.16M558.6 79.1l114.13 18.85M164.11 386.42l114.53-85.04"/>
  </g>
  <g stroke-width="1.9" stroke="#fff" fill="none">
    <circle cx="592.29" cy="586.41" r="23.56" />
    <circle cx="706.13" cy="441.99" r="14.03"  />
    <circle cx="1036.03" cy="723.91" r="57"  />
    <circle cx="492.09" cy="75.41" r="17.5" />
    <circle cx="536.79" cy="335.91" r="56.97"  />
    <circle cx="806.79" cy="885.91" r="28" />
    <circle cx="886.79" cy="816.9" r="9.01"  />
    <circle cx="1259.2" cy="866.51" r="21.59" />
    <circle cx="1702.72" cy="633.82" r="9.08" />
    <circle cx="1817.79" cy="542.91" r="28" />
    <circle cx="286.79" cy="776.95" r="9" />
    <circle cx="196.29" cy="705.44" r="21.52" />
    <circle cx="295.79" cy="565.91" r="57"  />
    <circle cx="317.16" cy="273.3" r="23.7" />
    <circle cx="366.65" cy="685.91" r="28.14" />
    <circle cx="135.49" cy="405.72" r="23.85" />
  </g>
</svg>
