<?xml version="1.0" encoding="UTF-8" standalone="no"?><!DOCTYPE svg PUBLIC "-//W3C//DTD SVG 1.1//EN" "http://www.w3.org/Graphics/SVG/1.1/DTD/svg11.dtd"><svg width="100%" height="100%" viewBox="0 0 400 400" version="1.1" xmlns="http://www.w3.org/2000/svg" xmlns:xlink="http://www.w3.org/1999/xlink" xml:space="preserve" xmlns:serif="http://www.serif.com/" style="fill-rule:evenodd;clip-rule:evenodd;stroke-linejoin:round;stroke-miterlimit:1.41421;"><g id="Contruction"><path d="M174.737,362.632l0,-55.264l36.842,0c9.474,0 16.842,7.895 16.842,17.369c0,7.369 -4.21,13.158 -10.526,15.79l16.842,22.105l-15.79,0l-15.789,-21.053l-15.263,0l0,21.053l-13.158,0Zm41.052,-38.421c0,-3.158 -2.104,-5.264 -5.262,-5.264l-22.632,0l0,10.527l22.632,0c3.158,0 5.262,-2.106 5.262,-5.263m9.474,-85.79l0,12.106l-36.842,0l0,9.473l35.79,0l0,12.106l-35.79,0l0,10.526l36.842,0l0,12.105l-50,0l0,-56.316l50,0Zm-134.21,-40.526c3.158,3.158 5.263,7.368 5.263,12.105c0,9.474 -7.369,16.842 -16.842,16.842l-38.947,0l0,-55.263l37.894,0c8.948,0 16.316,7.368 16.316,16.316c0,3.684 -1.579,7.368 -3.684,10m-37.369,16.842l23.685,0c3.158,0 5.263,-2.105 5.263,-5.263c0,-3.158 -2.105,-5.263 -5.263,-5.263l-23.685,0l0,10.526Zm0,-22.105l23.158,0c2.632,0 4.737,-2.105 4.737,-4.737c0,-2.632 -2.105,-4.737 -4.737,-4.737l-23.158,0l0,9.474Zm83.685,-6.842l-9.474,19.999l19.474,0l-10,-19.999Zm34.21,41.052l-14.21,0l-4.211,-9.474l-31.052,0l-4.211,9.474l-14.211,0l27.895,-55.263l12.632,0l27.368,55.263Zm170.527,-43.684l-18.948,0l0,10.526l18.948,0c3.157,0 5.262,-2.631 5.262,-5.263c0,-2.631 -2.631,-5.263 -5.262,-5.263m-9.474,22.631l-10,0l0,21.053l-13.158,0l0,-55.263l33.684,0c9.474,0 16.842,7.895 16.842,17.368c0,7.895 -5.263,14.211 -12.105,16.316l16.316,21.579l-15.79,0l-15.789,-21.053Zm-40.526,-34.21l0,12.105l-36.843,0l0,9.474l35.79,0l0,12.105l-35.79,0l0,10.526l36.843,0l0,12.106l-50,0l0,-56.316l50,0Zm-73.159,0l15.79,0l-27.895,35.789l0,19.474l-13.158,0l0,-19.474l-27.894,-35.789l15.789,0l18.948,25.263l18.42,-25.263Zm-18.947,-53.158l-9.473,20l18.947,0l-9.474,-20Zm34.211,41.053l-14.211,0l-4.211,-9.474l-31.052,0l-4.21,9.474l-14.211,0l27.368,-55.263l12.632,0l27.895,55.263Zm-8.948,-94.737c3.158,3.158 5.264,7.369 5.264,12.105c0,9.474 -7.369,16.842 -16.842,16.842l-38.422,0l0,-55.263l37.895,0c8.948,0 16.316,7.369 16.316,16.316c-0.527,3.684 -2.106,7.369 -4.211,10m-37.368,16.842l23.684,0c3.158,0 5.263,-2.105 5.263,-5.263c0,-3.158 -2.105,-5.263 -5.263,-5.263l-23.684,0l0,10.526Zm0,-22.105l23.158,0c2.632,0 4.736,-2.105 4.736,-4.737c0,-2.631 -2.104,-4.737 -4.736,-4.737l-23.158,0l0,9.474Z" style="fill:#00354f;fill-rule:nonzero;"/><path d="M399.474,187.369c-6.315,-104.211 -93.158,-187.369 -199.474,-187.369c-106.316,0 -193.157,83.158 -199.473,187.369c0,4.21 0.526,8.421 1.052,12.631c4.211,34.738 17.369,66.842 37.369,93.685c36.316,49.474 94.736,81.578 161.052,81.578c-92.631,0 -168.421,-72.104 -174.736,-162.631c-0.527,-4.211 -0.527,-8.421 -0.527,-12.632c0,-4.21 0,-8.421 0.527,-12.631c6.315,-90.526 82.105,-162.632 174.736,-162.632c66.316,0 124.738,32.106 161.053,81.579c20,26.842 33.158,58.948 37.368,93.684c0.527,4.211 1.053,8.421 1.053,12.106c0,-4.211 0.526,-8.421 0.526,-12.632c0,-3.684 0,-7.895 -0.526,-12.105" style="fill:#56d400;fill-rule:nonzero;"/><path d="M0.526,212.632c6.316,104.21 93.158,187.368 199.474,187.368c106.315,0 193.158,-83.158 199.473,-187.368c0,-4.211 -0.526,-8.421 -1.052,-12.632c-4.21,-34.737 -17.369,-66.842 -37.369,-93.684c-36.315,-49.474 -94.737,-81.579 -161.052,-81.579c92.631,0 168.421,72.105 174.737,162.632c0.526,4.21 0.526,8.421 0.526,12.631c0,4.211 0,8.421 -0.526,12.632c-6.316,91.053 -82.106,162.631 -174.737,162.631c-66.316,0 -124.737,-32.105 -161.053,-81.578c-20,-26.843 -33.158,-58.948 -37.368,-93.685c-0.527,-4.21 -1.053,-8.421 -1.053,-12.105c0,4.211 -0.526,8.421 -0.526,12.632c0,3.684 0,7.894 0.526,12.105" style="fill:#00bdff;fill-rule:nonzero;"/></g></svg>